<?xml version="1.0" encoding="utf-8"?>
<!-- Generator: Adobe Illustrator 24.1.2, SVG Export Plug-In . SVG Version: 6.00 Build 0)  -->
<svg version="1.1" id="Layer_1" xmlns="http://www.w3.org/2000/svg" xmlns:xlink="http://www.w3.org/1999/xlink" x="0px" y="0px"
	 viewBox="0 0 927 204.4" style="enable-background:new 0 0 927 204.4;" xml:space="preserve">
<g>
	<path d="M252.3,164.2L60.6,164c-5.3,0-9.5-1.5-12.8-4.5c-3.2-3-5.4-6.4-6.4-10.4c-1-3.9-0.8-7.8,0.8-11.6c1.5-3.8,4.3-6.6,8.4-8.3
		l192.1-74.5c16.1-30.7,47.5-52.2,84-54.4L13.3,0v39.7H182L35,91.3c-9.4,3.6-16.8,8.9-22.4,15.9s-9.2,14.7-11.1,23
		c-1.9,8.4-2,16.9-0.5,25.6c1.5,8.7,4.7,16.6,9.5,23.8s11.1,13,19,17.5c7.9,4.5,17.3,6.8,28.3,6.8h269.7l0-0.1
		C296.9,202.1,269.9,187,252.3,164.2z"/>
	<path d="M730.7,13.6c-9.5-7-19.9-11.2-30.9-12.5c-11.1-1.4-21.4-0.3-30.8,3.2c-9.5,3.5-17.3,9.3-23.6,17.5
		c-6.2,8.2-9.4,18.4-9.4,30.7V158l-74.1-42.4l18.2-0.3c12.4-0.2,22.8-3.1,31.1-8.8c8.3-5.7,14.4-12.8,18.3-21.4
		c3.9-8.5,5.7-17.8,5.2-27.8c-0.4-10-3.1-19.2-7.9-27.6c-4.9-8.4-11.9-15.5-21.1-21.1s-20.7-8.4-34.5-8.4H383l-43.4,0
		c30.3,1.9,57,17,74.4,39.7l162,0.2c7.2,0,12.4,2,15.9,6c3.4,4,5,8.4,4.9,13.2c-0.2,4.8-2.1,9.2-5.9,13.2c-3.8,4-9.2,6-16.4,6H432.6
		l203.5,125v0.3h40.2l-0.8-146c0-3.7,0.8-7.1,2.4-10.1c1.6-3,3.8-5.2,6.6-6.6c2.8-1.4,6.1-2,9.7-1.5c3.7,0.4,7.5,2.1,11.6,5
		L927,204.4v-48.9L730.7,13.6z"/>
</g>
</svg>
